<svg width="600" height="600" viewBox="0 0 600 600" fill="none" xmlns="http://www.w3.org/2000/svg">
<g clip-path="url(#clip0)">
<path d="M300.5 73L539.956 487.75H61.044L300.5 73Z" fill="#2C2C2C"/>
<g style="mix-blend-mode:luminosity">
<path d="M383.76 149.24V162.776H371.376V149.24H383.76ZM371.376 187.16V172.952H383.76V187.16H371.376ZM394.32 197.528V138.872H360.816V205.784H371.376V197.528H394.32ZM411.696 182.936C412.08 179.192 412.176 175.544 412.176 172.088V170.648H432.816V182.936H411.696ZM432.816 148.088V160.376H412.176V148.088H432.816ZM444.144 137.528H400.944V172.088C400.944 186.68 399.504 204.536 383.376 216.44C385.776 217.88 390.192 221.816 391.92 224.024C402.672 216.152 407.856 204.728 410.256 193.208H432.816V210.104C432.816 211.736 432.24 212.312 430.512 212.312C428.88 212.408 423.024 212.504 417.84 212.216C419.472 215.096 421.392 220.088 421.872 223.256C429.84 223.256 435.312 222.968 439.152 221.144C442.896 219.32 444.144 216.248 444.144 210.2V137.528ZM364.368 296.632C366.576 289.24 368.304 278.008 368.688 269.656L360.528 268.6C359.856 276.568 358.128 287.224 355.824 293.656L364.368 296.632ZM392.784 283.672C391.536 278.968 388.272 271.288 385.296 265.528L380.112 267.736V249.688H368.784V339.256H380.112V274.648C382.032 279.256 383.664 284.152 384.432 287.608L392.784 283.672ZM419.28 274.744H428.976V292.312H418.992C419.184 289.336 419.28 286.456 419.28 283.576V274.744ZM446.16 303.16V292.312H440.112V264.184H419.28V249.688H407.76V264.184H391.248V274.744H407.76V283.48C407.76 286.36 407.76 289.24 407.472 292.312H386.832V303.16H405.936C403.344 313.72 397.2 323.896 382.608 331C385.104 333.112 389.136 337.336 390.672 339.832C403.92 332.248 411.216 322.168 415.056 311.416C420.336 324.28 428.016 333.976 440.016 339.64C441.744 336.28 445.392 331.288 448.08 328.888C436.08 324.376 428.208 314.968 423.504 303.16H446.16ZM402.672 378.84C403.248 380.472 403.824 382.488 404.592 384.696C394.416 385.368 382.128 385.08 367.728 383.352L367.92 395.64C384.336 396.984 397.488 396.888 408.912 396.024C411.6 402.456 415.056 408.792 417.936 413.4C414.96 413.208 408.624 412.632 403.92 412.248L402.96 422.424C411.024 423.096 423.12 424.344 428.496 425.4L434.448 416.76C432.72 414.84 430.896 412.728 429.264 410.328C426.864 406.872 423.504 400.92 420.72 394.68C426.768 393.816 432.912 392.664 437.808 391.224L436.272 379.128C430.224 380.952 423.504 382.488 416.592 383.544C414.96 378.744 413.52 373.56 412.56 368.472L399.6 370.008C400.848 373.176 401.904 376.632 402.672 378.84ZM386.928 416.088L374.928 413.304C371.664 419.832 369.84 425.304 369.84 431.16C369.84 444.984 382.224 452.568 401.808 452.664C413.52 452.664 422.16 451.416 427.632 450.36L428.304 438.264C421.488 439.608 413.04 440.568 402.576 440.568C389.424 440.568 382.224 437.112 382.224 429.048C382.224 424.824 383.856 420.6 386.928 416.088Z" fill="#A7A7A7"/>
</g>
<g style="mix-blend-mode:luminosity">
<rect x="127" y="242" width="94" height="310" fill="#A7A7A7"/>
</g>
</g>
<defs>
<clipPath id="clip0">
<rect width="600" height="600" fill="white"/>
</clipPath>
</defs>
</svg>
